<mxfile host="65bd71144e">
    <diagram id="NdCAmwH4Deats1MZjn-6" name="Page-1">
        <mxGraphModel dx="781" dy="-311" grid="1" gridSize="10" guides="1" tooltips="1" connect="1" arrows="1" fold="1" page="1" pageScale="1" pageWidth="850" pageHeight="1100" math="0" shadow="0">
            <root>
                <mxCell id="0"/>
                <mxCell id="1" parent="0"/>
                <mxCell id="2" value="" style="group;fontColor=#000000;" parent="1" vertex="1" connectable="0">
                    <mxGeometry x="80" y="1170" width="900" height="680" as="geometry"/>
                </mxCell>
                <mxCell id="3" value="" style="rounded=1;whiteSpace=wrap;html=1;absoluteArcSize=1;arcSize=14;strokeWidth=2;fillColor=#f8cecc;fontColor=#000000;strokeColor=#B85450;" parent="2" vertex="1">
                    <mxGeometry width="900" height="320" as="geometry"/>
                </mxCell>
                <mxCell id="4" value="&lt;font&gt;&lt;span style=&quot;font-size: 30px;&quot;&gt;External Module&lt;/span&gt;&lt;/font&gt;" style="text;html=1;align=center;verticalAlign=middle;whiteSpace=wrap;rounded=0;fontColor=#000000;" parent="2" vertex="1">
                    <mxGeometry width="900" height="39" as="geometry"/>
                </mxCell>
                <mxCell id="5" value="" style="html=1;verticalLabelPosition=bottom;align=center;labelBackgroundColor=#ffffff;verticalAlign=top;strokeWidth=2;strokeColor=#000000;shadow=0;dashed=0;shape=mxgraph.ios7.icons.stopwatch;fillColor=none;fontColor=#000000;" parent="2" vertex="1">
                    <mxGeometry x="10" y="74.78999999999996" width="27" height="28.2" as="geometry"/>
                </mxCell>
                <mxCell id="6" value="" style="endArrow=classic;html=1;exitX=0;exitY=0.5;exitDx=0;exitDy=0;entryX=1;entryY=0.363;entryDx=0;entryDy=0;strokeWidth=6;endFill=1;entryPerimeter=0;fontColor=#000000;strokeColor=#000000;" parent="2" target="3" edge="1">
                    <mxGeometry width="50" height="50" relative="1" as="geometry">
                        <mxPoint y="117.99000000000001" as="sourcePoint"/>
                        <mxPoint x="310" y="117.99000000000001" as="targetPoint"/>
                    </mxGeometry>
                </mxCell>
                <mxCell id="7" value="" style="rounded=1;whiteSpace=wrap;html=1;absoluteArcSize=1;arcSize=14;strokeWidth=2;fillColor=#fa998e;fontColor=#000000;strokeColor=#000000;" parent="2" vertex="1">
                    <mxGeometry x="75" y="68.99000000000001" width="705" height="231.01" as="geometry"/>
                </mxCell>
                <mxCell id="8" value="" style="endArrow=classic;html=1;strokeWidth=6;entryX=0.917;entryY=0.998;entryDx=0;entryDy=0;entryPerimeter=0;exitX=0.491;exitY=1;exitDx=0;exitDy=0;exitPerimeter=0;fontColor=#000000;strokeColor=#000000;" parent="2" source="13" target="3" edge="1">
                    <mxGeometry width="50" height="50" relative="1" as="geometry">
                        <mxPoint x="240" y="210" as="sourcePoint"/>
                        <mxPoint x="290" y="160" as="targetPoint"/>
                    </mxGeometry>
                </mxCell>
                <mxCell id="9" value="" style="edgeStyle=segmentEdgeStyle;endArrow=classic;html=1;curved=0;rounded=0;endSize=8;startSize=8;strokeWidth=6;entryX=0.5;entryY=0;entryDx=0;entryDy=0;fontColor=#000000;strokeColor=#000000;" parent="2" target="12" edge="1">
                    <mxGeometry width="50" height="50" relative="1" as="geometry">
                        <mxPoint x="50" y="118.99000000000001" as="sourcePoint"/>
                        <mxPoint x="120" y="38.99000000000001" as="targetPoint"/>
                        <Array as="points">
                            <mxPoint x="50" y="50"/>
                            <mxPoint x="826" y="50"/>
                            <mxPoint x="826" y="90"/>
                        </Array>
                    </mxGeometry>
                </mxCell>
                <mxCell id="10" value="" style="group;fontColor=#000000;" parent="2" vertex="1" connectable="0">
                    <mxGeometry x="800" y="90" width="51" height="51" as="geometry"/>
                </mxCell>
                <mxCell id="11" style="edgeStyle=none;html=1;exitX=1;exitY=1;exitDx=0;exitDy=0;entryX=0.174;entryY=0.855;entryDx=0;entryDy=0;entryPerimeter=0;fontColor=#000000;" parent="10" source="12" target="13" edge="1">
                    <mxGeometry relative="1" as="geometry"/>
                </mxCell>
                <mxCell id="12" value="" style="rhombus;whiteSpace=wrap;html=1;strokeColor=#000000;fillColor=#FFFFFF;strokeWidth=2;fontColor=#000000;" parent="10" vertex="1">
                    <mxGeometry width="51" height="51" as="geometry"/>
                </mxCell>
                <mxCell id="13" value="" style="html=1;verticalLabelPosition=bottom;align=center;labelBackgroundColor=#ffffff;verticalAlign=top;strokeWidth=2;strokeColor=#000000;shadow=0;dashed=0;shape=mxgraph.ios7.icons.clock;fillColor=none;fontColor=#000000;" parent="10" vertex="1">
                    <mxGeometry x="10.5" y="10.5" width="30" height="30" as="geometry"/>
                </mxCell>
                <mxCell id="14" value="" style="group;fontColor=#000000;" parent="2" vertex="1" connectable="0">
                    <mxGeometry x="65" y="350" width="705" height="330" as="geometry"/>
                </mxCell>
                <mxCell id="15" value="" style="rounded=1;whiteSpace=wrap;html=1;fillColor=#d0cee2;strokeColor=#56517e;fontColor=#000000;" parent="14" vertex="1">
                    <mxGeometry width="705" height="330" as="geometry"/>
                </mxCell>
                <mxCell id="16" value="" style="rounded=0;whiteSpace=wrap;html=1;fillColor=#b1ddf0;strokeColor=#10739e;fontColor=#000000;" parent="14" vertex="1">
                    <mxGeometry x="45" y="60" width="120" height="190" as="geometry"/>
                </mxCell>
                <mxCell id="17" value="&lt;font&gt;&lt;span style=&quot;font-size: 30px;&quot;&gt;gRPC Server&lt;/span&gt;&lt;/font&gt;" style="text;html=1;align=center;verticalAlign=middle;whiteSpace=wrap;rounded=0;fontColor=#000000;" parent="14" vertex="1">
                    <mxGeometry x="12.5" y="10" width="680" height="39" as="geometry"/>
                </mxCell>
                <mxCell id="18" value="" style="verticalLabelPosition=bottom;html=1;verticalAlign=top;align=center;strokeColor=#000000;fillColor=#FFFFFF;shape=mxgraph.azure.cloud_service_package_file;labelBackgroundColor=none;strokeWidth=4;fontSize=30;fontColor=#000000;" parent="14" vertex="1">
                    <mxGeometry x="74" y="154.5" width="62.05" height="73" as="geometry"/>
                </mxCell>
                <mxCell id="19" value="" style="rounded=0;whiteSpace=wrap;html=1;fillColor=#b1ddf0;strokeColor=#10739e;fontColor=#000000;" parent="14" vertex="1">
                    <mxGeometry x="525" y="60" width="120" height="190" as="geometry"/>
                </mxCell>
                <mxCell id="20" value="" style="verticalLabelPosition=bottom;html=1;verticalAlign=top;align=center;strokeColor=#000000;fillColor=#FFFFFF;shape=mxgraph.azure.cloud_service_package_file;labelBackgroundColor=none;strokeWidth=4;fontSize=30;fontColor=#000000;" parent="14" vertex="1">
                    <mxGeometry x="553.97" y="154.5" width="62.05" height="73" as="geometry"/>
                </mxCell>
                <mxCell id="21" value="" style="endArrow=none;html=1;strokeWidth=6;exitX=1;exitY=0.5;exitDx=0;exitDy=0;exitPerimeter=0;fontColor=#000000;strokeColor=#000000;" parent="14" source="18" target="20" edge="1">
                    <mxGeometry width="50" height="50" relative="1" as="geometry">
                        <mxPoint x="195" y="141" as="sourcePoint"/>
                        <mxPoint x="245" y="91" as="targetPoint"/>
                    </mxGeometry>
                </mxCell>
                <mxCell id="22" value="" style="group;fontColor=#000000;" parent="14" vertex="1" connectable="0">
                    <mxGeometry x="190" y="71" width="310" height="240" as="geometry"/>
                </mxCell>
                <mxCell id="23" value="" style="rounded=1;whiteSpace=wrap;html=1;absoluteArcSize=1;arcSize=14;strokeWidth=2;fillColor=#f8cecc;fontColor=#000000;strokeColor=#B85450;" parent="22" vertex="1">
                    <mxGeometry width="310" height="240" as="geometry"/>
                </mxCell>
                <mxCell id="24" value="&lt;font&gt;&lt;span style=&quot;font-size: 30px;&quot;&gt;Sub-Module&lt;/span&gt;&lt;/font&gt;" style="text;html=1;align=center;verticalAlign=middle;whiteSpace=wrap;rounded=0;fontColor=#000000;" parent="22" vertex="1">
                    <mxGeometry width="310" height="39" as="geometry"/>
                </mxCell>
                <mxCell id="25" value="" style="html=1;verticalLabelPosition=bottom;align=center;labelBackgroundColor=#ffffff;verticalAlign=top;strokeWidth=2;strokeColor=#000000;shadow=0;dashed=0;shape=mxgraph.ios7.icons.stopwatch;fillColor=none;fontColor=#000000;" parent="22" vertex="1">
                    <mxGeometry x="10" y="74.79000000000002" width="27" height="28.2" as="geometry"/>
                </mxCell>
                <mxCell id="26" value="" style="endArrow=classic;html=1;exitX=0;exitY=0.5;exitDx=0;exitDy=0;entryX=1;entryY=0.5;entryDx=0;entryDy=0;strokeWidth=6;endFill=1;fontColor=#000000;strokeColor=#000000;" parent="22" source="23" target="23" edge="1">
                    <mxGeometry width="50" height="50" relative="1" as="geometry">
                        <mxPoint y="117.99000000000001" as="sourcePoint"/>
                        <mxPoint x="310" y="117.99000000000001" as="targetPoint"/>
                    </mxGeometry>
                </mxCell>
                <mxCell id="27" value="" style="rounded=1;whiteSpace=wrap;html=1;absoluteArcSize=1;arcSize=14;strokeWidth=2;fillColor=#fa998e;fontColor=#000000;strokeColor=#000000;" parent="22" vertex="1">
                    <mxGeometry x="75" y="68.99000000000001" width="130" height="140" as="geometry"/>
                </mxCell>
                <mxCell id="28" value="" style="endArrow=classic;html=1;strokeWidth=6;entryX=0.822;entryY=1;entryDx=0;entryDy=0;entryPerimeter=0;exitX=0.491;exitY=1;exitDx=0;exitDy=0;exitPerimeter=0;fontColor=#000000;strokeColor=#000000;" parent="22" source="32" target="23" edge="1">
                    <mxGeometry width="50" height="50" relative="1" as="geometry">
                        <mxPoint x="240" y="210" as="sourcePoint"/>
                        <mxPoint x="290" y="160" as="targetPoint"/>
                    </mxGeometry>
                </mxCell>
                <mxCell id="29" value="" style="edgeStyle=segmentEdgeStyle;endArrow=classic;html=1;curved=0;rounded=0;endSize=8;startSize=8;strokeWidth=6;entryX=0.5;entryY=0;entryDx=0;entryDy=0;fontColor=#000000;strokeColor=#000000;" parent="22" target="31" edge="1">
                    <mxGeometry width="50" height="50" relative="1" as="geometry">
                        <mxPoint x="50" y="118.99000000000001" as="sourcePoint"/>
                        <mxPoint x="120" y="38.99000000000001" as="targetPoint"/>
                        <Array as="points">
                            <mxPoint x="50" y="48.99000000000001"/>
                            <mxPoint x="255" y="48.99000000000001"/>
                        </Array>
                    </mxGeometry>
                </mxCell>
                <mxCell id="30" value="" style="group;fontColor=#000000;" parent="22" vertex="1" connectable="0">
                    <mxGeometry x="229.5" y="94.49000000000001" width="51" height="51" as="geometry"/>
                </mxCell>
                <mxCell id="31" value="" style="rhombus;whiteSpace=wrap;html=1;strokeColor=#000000;fillColor=#FFFFFF;strokeWidth=2;fontColor=#000000;" parent="30" vertex="1">
                    <mxGeometry width="51" height="51" as="geometry"/>
                </mxCell>
                <mxCell id="32" value="" style="html=1;verticalLabelPosition=bottom;align=center;labelBackgroundColor=#ffffff;verticalAlign=top;strokeWidth=2;strokeColor=#000000;shadow=0;dashed=0;shape=mxgraph.ios7.icons.clock;fillColor=none;fontColor=#000000;" parent="30" vertex="1">
                    <mxGeometry x="10.5" y="10.5" width="30" height="30" as="geometry"/>
                </mxCell>
                <mxCell id="33" value="" style="verticalLabelPosition=bottom;html=1;verticalAlign=top;align=center;strokeColor=none;fillColor=#000000;shape=mxgraph.azure.code_file;pointerEvents=1;strokeWidth=2;fontColor=#000000;" parent="22" vertex="1">
                    <mxGeometry x="102" y="120" width="76" height="80" as="geometry"/>
                </mxCell>
                <mxCell id="34" value="&lt;font style=&quot;font-size: 20px;&quot;&gt;Run code&lt;/font&gt;" style="text;html=1;align=center;verticalAlign=middle;whiteSpace=wrap;rounded=0;fontColor=#000000;" parent="22" vertex="1">
                    <mxGeometry x="77.5" y="74.78999999999999" width="125" height="39" as="geometry"/>
                </mxCell>
                <mxCell id="35" value="&lt;font style=&quot;font-size: 30px;&quot;&gt;gRPC&lt;br&gt;to DP&lt;br&gt;&lt;/font&gt;" style="text;html=1;strokeColor=none;fillColor=none;align=center;verticalAlign=middle;whiteSpace=wrap;rounded=0;fontColor=#000000;" parent="14" vertex="1">
                    <mxGeometry x="50" y="60" width="110" height="70" as="geometry"/>
                </mxCell>
                <mxCell id="36" value="&lt;font style=&quot;font-size: 30px;&quot;&gt;DP to gRPC&lt;/font&gt;" style="text;html=1;strokeColor=none;fillColor=none;align=center;verticalAlign=middle;whiteSpace=wrap;rounded=0;fontColor=#000000;" parent="14" vertex="1">
                    <mxGeometry x="530" y="60" width="110" height="70" as="geometry"/>
                </mxCell>
                <mxCell id="37" value="" style="rounded=0;whiteSpace=wrap;html=1;fillColor=#b1ddf0;strokeColor=#10739e;fontColor=#000000;" parent="2" vertex="1">
                    <mxGeometry x="110" y="89.49000000000001" width="120" height="190" as="geometry"/>
                </mxCell>
                <mxCell id="38" value="" style="rounded=0;whiteSpace=wrap;html=1;fillColor=#b1ddf0;strokeColor=#10739e;fontColor=#000000;" parent="2" vertex="1">
                    <mxGeometry x="590" y="89.49000000000001" width="120" height="190" as="geometry"/>
                </mxCell>
                <mxCell id="39" value="" style="endArrow=none;html=1;strokeWidth=6;exitX=0;exitY=0.5;exitDx=0;exitDy=0;entryX=0;entryY=0.5;entryDx=0;entryDy=0;fontColor=#000000;strokeColor=#000000;" parent="2" source="7" target="37" edge="1">
                    <mxGeometry width="50" height="50" relative="1" as="geometry">
                        <mxPoint x="110" y="190" as="sourcePoint"/>
                        <mxPoint x="160" y="140" as="targetPoint"/>
                    </mxGeometry>
                </mxCell>
                <mxCell id="40" value="" style="endArrow=none;html=1;strokeWidth=6;entryX=1;entryY=0.5;entryDx=0;entryDy=0;fontColor=#000000;strokeColor=#000000;" parent="2" source="7" target="38" edge="1">
                    <mxGeometry width="50" height="50" relative="1" as="geometry">
                        <mxPoint x="480" y="230" as="sourcePoint"/>
                        <mxPoint x="530" y="180" as="targetPoint"/>
                    </mxGeometry>
                </mxCell>
                <mxCell id="41" value="" style="endArrow=classic;html=1;strokeWidth=6;exitX=0.5;exitY=1;exitDx=0;exitDy=0;entryX=0.5;entryY=0;entryDx=0;entryDy=0;fontColor=#000000;strokeColor=#000000;" parent="2" source="37" target="16" edge="1">
                    <mxGeometry width="50" height="50" relative="1" as="geometry">
                        <mxPoint x="320" y="310" as="sourcePoint"/>
                        <mxPoint x="370" y="260" as="targetPoint"/>
                    </mxGeometry>
                </mxCell>
                <mxCell id="42" value="" style="endArrow=classic;html=1;strokeWidth=6;exitX=0.5;exitY=0;exitDx=0;exitDy=0;entryX=0.5;entryY=1;entryDx=0;entryDy=0;fontColor=#000000;strokeColor=#000000;" parent="2" source="19" target="38" edge="1">
                    <mxGeometry width="50" height="50" relative="1" as="geometry">
                        <mxPoint x="480" y="310" as="sourcePoint"/>
                        <mxPoint x="530" y="260" as="targetPoint"/>
                    </mxGeometry>
                </mxCell>
                <mxCell id="43" value="&lt;font style=&quot;font-size: 30px;&quot;&gt;DP to&lt;br&gt;gRPC&lt;/font&gt;" style="text;html=1;strokeColor=none;fillColor=none;align=center;verticalAlign=middle;whiteSpace=wrap;rounded=0;fontColor=#000000;" parent="2" vertex="1">
                    <mxGeometry x="115" y="95" width="110" height="70" as="geometry"/>
                </mxCell>
                <mxCell id="44" value="&lt;font style=&quot;font-size: 30px;&quot;&gt;gRPC to DP&lt;br&gt;&lt;/font&gt;" style="text;html=1;strokeColor=none;fillColor=none;align=center;verticalAlign=middle;whiteSpace=wrap;rounded=0;fontColor=#000000;" parent="2" vertex="1">
                    <mxGeometry x="595" y="95" width="110" height="70" as="geometry"/>
                </mxCell>
                <mxCell id="45" value="" style="verticalLabelPosition=bottom;html=1;verticalAlign=top;align=center;strokeColor=#000000;fillColor=#FFFFFF;shape=mxgraph.azure.cloud_service_package_file;labelBackgroundColor=none;strokeWidth=4;fontSize=30;fontColor=#000000;" parent="2" vertex="1">
                    <mxGeometry x="138.98000000000002" y="179" width="62.05" height="73" as="geometry"/>
                </mxCell>
                <mxCell id="46" value="" style="verticalLabelPosition=bottom;html=1;verticalAlign=top;align=center;strokeColor=#000000;fillColor=#FFFFFF;shape=mxgraph.azure.cloud_service_package_file;labelBackgroundColor=none;strokeWidth=4;fontSize=30;fontColor=#000000;" parent="2" vertex="1">
                    <mxGeometry x="618.97" y="179" width="62.05" height="73" as="geometry"/>
                </mxCell>
            </root>
        </mxGraphModel>
    </diagram>
</mxfile>